Genre:Comedy | Drama
Language:English  http://www.imdb.com/title/tt1055292/
Source:1080p.BluRay.x264-SECTOR7
Subtitles:Romana


Format : Matroska
File size : 2.15 GiB
Duration : 1h 54mn
Overall bit rate : 2 688 Kbps


Video
Format settings, CABAC : Yes
Format settings, ReFrames : 4 frames
Format settings, GOP : M=1, N=32
Codec ID : V_MPEG4/ISO/AVC
Duration : 1h 54mn
Bit rate : 2 300 Kbps
Width : 1 280 pixels
Height : 544 pixels
Display aspect ratio : 2.35:1
Frame rate mode : Variable
Frame rate : 23.976 fps
Color space : YUV
Chroma subsampling : 4:2:0
Bit depth : 8 bits
Scan type : Progressive
Bits/(Pixel*Frame) : 0.138
Stream size : 1.80 GiB (84%)
Writing library : x264

Audio
ID : 2
Format : AC-3
Format/Info : Audio Coding 3
Mode extension : CM (complete main)
Codec ID : A_AC3
Duration : 1h 54mn
Bit rate mode : Constant
Bit rate : 384 Kbps
Channel(s) : 6 channels
Channel positions : Front: L C R, Side: L R, LFE
Sampling rate : 48.0 KHz
Bit depth : 16 bits
Video delay : -1mn 5s
Stream size : 315 MiB (14%)
Language : English


Plot:
Two single adults become caregivers to an orphaned girl when their mutual best friends die in an accident.
 
http://shareimage.org/images/k57gi1b7b6ez0r070rj.png 
http://shareimage.org/images/nr4t3riwpwghkolmcdo2.png 
http://shareimage.org/images/6bapjvo32maqlazryvch.png 
http://shareimage.org/images/k5tnptfh2cb04c95ccw.png 
http://shareimage.org/images/mkkzmzqmt1a55f6fit0k.png